<?xml version="1.0" encoding="UTF-8"?>
<svg xmlns="http://www.w3.org/2000/svg" width="114" height="114" viewBox="0 0 114 114" fill="none">
  <path d="M104.995 87.7647C94.8591 103.545 77.152 114 57 114C36.848 114 19.145 103.545 9.00894 87.7647H30.6735C37.7555 93.8314 46.9509 97.4988 57 97.4988C67.0491 97.4988 76.2486 93.8314 83.3265 87.7647H104.995ZM114 57C114 62.0805 113.333 66.9994 112.086 71.6861H94.7431C96.5208 67.1237 97.4988 62.1592 97.4988 56.9627C97.4988 49.6942 95.5843 42.8691 92.236 36.9723L57 72.2041L21.7599 36.9764C18.4116 42.8774 16.4971 49.6984 16.4971 56.9669C16.4971 62.1592 17.475 67.1278 19.2528 71.6903H1.9145C0.667176 67.0035 0 62.0805 0 57C0 25.5184 25.5184 0 57 0C88.4816 0 114 25.5184 114 57ZM80.7117 24.1012C74.0482 19.2776 65.8556 16.4308 57 16.4308C48.1485 16.4308 39.9601 19.2776 33.2966 24.1012L57.0041 47.8087L80.7117 24.1012Z" fill="white"></path>
  <path d="M57.0003 98.7998C46.773 98.7998 37.4118 95.1241 30.1475 89.0242H11.3878C21.4701 103.362 38.1412 112.732 57.0003 112.732C75.8594 112.732 92.5305 103.362 102.613 89.0242H83.8531C76.5887 95.12 67.2275 98.7998 57.0003 98.7998ZM17.4297 70.451C15.9959 66.2284 15.2044 61.7115 15.2044 57.0039C15.2044 55.2593 15.3122 53.5396 15.5194 51.8489H1.50867C1.3512 53.5479 1.27246 55.2635 1.27246 57.0039C1.27246 61.641 1.84433 66.1455 2.90932 70.451H17.4297ZM98.7961 56.9998C98.7961 61.7073 98.0088 66.2242 96.5708 70.4469H111.091C112.16 66.1413 112.728 61.6369 112.728 56.9998C112.728 55.2635 112.649 53.5437 112.492 51.8447H98.477C98.6884 53.5355 98.7961 55.2552 98.7961 56.9998Z" fill="url(#paint0_linear_2432_654)"></path>
  <path d="M90.7196 77.6408V76.3894H82.6886V83.8526H90.8687V82.6011H84.4373V80.6286H89.8452V79.3772H84.4373V77.6408H90.7196ZM96.9148 77.4585C99.0075 77.4585 99.6995 78.5152 99.799 78.7721H101.548C101.411 78.3702 100.823 76.207 96.8195 76.207C93.2598 76.207 91.6188 77.8273 91.6188 80.007C91.6188 82.7296 93.8482 84.0432 96.6827 84.0432C100.798 84.0432 101.51 82.0293 101.684 81.2005H99.9357C99.7617 81.7765 98.8624 82.7918 96.8195 82.7918C94.8967 82.7918 93.409 81.8884 93.409 80.1728C93.4048 78.6147 94.4367 77.4585 96.9148 77.4585ZM56.3911 83.8526V76.3894H54.6424V83.8526H56.3911ZM77.3761 83.8526V77.6408H81.3791V76.3894H71.6243V77.6408H75.6273V83.8526H77.3761ZM63.2659 77.4585C65.3586 77.4585 66.0506 78.5152 66.1501 78.7721H67.8988C67.7621 78.3702 67.1737 76.207 63.1665 76.207C59.6068 76.207 57.9699 77.8273 57.9699 80.007C57.9699 82.7296 60.1994 84.0432 63.0338 84.0432C67.1488 84.0432 67.8615 82.0293 68.0356 81.2005H66.2868C66.1128 81.7765 65.2177 82.7918 63.1706 82.7918C61.2478 82.7918 59.7601 81.8884 59.7601 80.1728C59.756 78.6147 60.7878 77.4585 63.2659 77.4585ZM1.27246 77.6408H5.27551V83.8526H7.02426V77.6408H11.0273V76.3894H1.27246V77.6408ZM110.983 79.3481H104.971V76.3935H103.222V83.8568H104.971V80.6452H110.983V83.8568H112.732V76.3935H110.983V79.3481ZM21.7394 78.6147C21.7394 76.7872 20.2103 76.3894 18.0927 76.3894H12.7098V83.8526H14.4585V80.9146H17.2308L19.8291 83.8526H21.9839L19.2365 80.8151C20.5584 80.7529 21.7394 79.9946 21.7394 78.6147ZM17.8358 79.7045H14.4626V77.5994H17.8358C19.2655 77.5994 19.9907 77.7734 19.9907 78.6478C19.9907 79.5305 19.2655 79.7045 17.8358 79.7045ZM43.607 77.6408V76.3894H35.3647V83.8526H37.1135V80.6286H42.6954V79.3772H37.1135V77.6408H43.607ZM53.1878 77.6408V76.3894H44.9455V83.8526H46.6943V80.6286H52.2762V79.3772H46.6943V77.6408H53.1878ZM23.0779 83.8526H24.9385L25.8875 82.137H31.0509L31.9874 83.8526H33.8356L29.4886 76.3894H27.4912L23.0779 83.8526ZM30.3547 80.8856H26.6086L28.4816 77.558L30.3547 80.8856Z" fill="white"></path>
  <path d="M21.4859 34.9296L21.6848 35.1285L46.5651 60.0046L56.7716 70.2153L57.0078 70.4515L67.4506 60.0088L91.6927 35.7667L92.5256 34.9337C95.5051 39.7242 97.5398 45.161 98.3769 50.9833H112.417C109.479 23.5462 86.6329 2.06395 58.6074 1.27246V15.2127C67.6412 15.5525 75.9374 18.7641 82.6216 23.9523L82.3854 24.1885L63.4848 43.089L57.0078 49.566L46.5651 39.1233L31.3858 23.9481C38.07 18.7599 46.3662 15.5525 55.4 15.2127V1.27246C27.3745 2.05981 4.52474 23.5462 1.59082 50.9833H15.6305C16.4676 45.161 18.5064 39.72 21.4859 34.9296Z" fill="url(#paint1_linear_2432_654)"></path>
  <path d="M56.9999 1.27222C56.7098 1.27222 56.4239 1.27636 56.1338 1.28465V15.1876C56.4197 15.1834 56.7098 15.1752 56.9999 15.1752C57.2941 15.1752 57.5842 15.1793 57.8784 15.1876V1.2805C57.5842 1.27636 57.2941 1.27222 56.9999 1.27222Z" fill="#CACBCD"></path>
  <defs>
    <linearGradient id="paint0_linear_2432_654" x1="1.27118" y1="82.2894" x2="112.731" y2="82.2894" gradientUnits="userSpaceOnUse">
      <stop stop-color="#E7E7E8"></stop>
      <stop offset="1" stop-color="#BDBEC0"></stop>
    </linearGradient>
    <linearGradient id="paint1_linear_2432_654" x1="1.58991" y1="35.8604" x2="112.411" y2="35.8604" gradientUnits="userSpaceOnUse">
      <stop stop-color="#0056A6"></stop>
      <stop offset="1" stop-color="#150958"></stop>
    </linearGradient>
  </defs>
</svg>
